<?xml version="1.0" encoding="utf-8"?>
<!-- Generator: Adobe Illustrator 19.1.0, SVG Export Plug-In . SVG Version: 6.00 Build 0)  -->
<svg version="1.1" id="レイヤー_1" xmlns="http://www.w3.org/2000/svg" xmlns:xlink="http://www.w3.org/1999/xlink" x="0px"
	 y="0px" viewBox="0 0 200 200" enable-background="new 0 0 200 200" xml:space="preserve">
<rect x="0" width="200" height="200"/>
<path fill="#FFFFFF" d="M40.8,15.2c-0.1,0.3-0.3,0.5-0.7,0.6c-1.5,4.7-3.5,9.3-5.8,13c1.5,0.9,3.6,2.2,4.7,3L36,37
	c-1.3-1-3.4-2.5-4.9-3.4c-3.7,4.8-8.4,8.6-14.2,11.4c-0.8-1.2-2.8-3.2-4.2-4c5.4-2.3,10-5.8,13.7-10.1c-2.2-1.4-5.1-2.7-7.3-3.6l3-4
	c2.3,0.8,5.1,1.9,7.5,3.2c1.5-2.2,3-5.8,3.7-8.1H21.8c-2.7,4.1-5.8,7.8-8.9,10.4c-1-1-3.1-2.5-4.4-3.3c6-4.4,10.2-11.1,12.7-18.2
	l6.6,1.8c-0.2,0.4-0.6,0.7-1.4,0.7c-0.4,1.1-1.1,2.6-1.7,3.8h11.2l0.5-0.1L40.8,15.2z M35.8,5.8c1.8,1.5,3.9,4.1,5,5.8l-2.5,1.9
	c-1-1.5-3.3-4.4-4.9-5.8L35.8,5.8z M41.9,4.8c1.7,1.5,3.9,4,5,5.6l-2.5,1.9c-0.9-1.6-3.3-4.3-4.8-5.7L41.9,4.8z"/>
<path fill="#FFFFFF" d="M37.7,80.3c-3.5-2-9.1-4.7-13.3-6.4v19.8h-5.7V56.6l6.9,0.3c0,0.5-0.4,0.9-1.3,1.1v11.9l1.1-1.4
	c4.7,1.7,11,4.4,15.2,6.6L37.7,80.3z"/>
<path fill="#FFFFFF" d="M13.8,129.7v-20.8l6.6,0.3c0,0.5-0.4,0.8-1.2,0.9v19.6H13.8z M38.9,107.1c0,0.4-0.4,0.7-1.2,0.8v13.3
	c0,9-3,17.3-14.9,22.2c-0.8-1.1-2.8-3-4.1-3.9c11.2-4.3,13.4-11.3,13.4-18.3v-14.4L38.9,107.1z"/>
<path fill="#FFFFFF" d="M11.4,161.1h28.9v5.1H28.5v17.3h14.8v5H8.4v-5H23v-17.3H11.4V161.1z"/>
<path fill="#FFFFFF" d="M56.2,172.9c-4.5,0-8.2,3.7-8.2,8.2c0,4.5,3.7,8.2,8.2,8.2c4.5,0,8.2-3.7,8.2-8.2
	C64.4,176.6,60.7,172.9,56.2,172.9z M56.2,187.4c-3.5,0-6.4-2.8-6.4-6.4s2.8-6.4,6.4-6.4c3.5,0,6.4,2.8,6.4,6.4
	S59.7,187.4,56.2,187.4z"/>
<path fill="#FFFFFF" d="M51.7,176.6v9h9v-9H51.7z M55.2,183.8h-1.7v-1.8h1.7V183.8z M55.2,180.1h-1.7v-1.7h1.7V180.1z M58.9,183.8
	H57v-1.8h1.8V183.8z M58.9,180.1H57v-1.7h1.8V180.1z"/>
</svg>
