<?xml version="1.0" encoding="utf-8"?>
<!-- Generator: Adobe Illustrator 19.1.0, SVG Export Plug-In . SVG Version: 6.00 Build 0)  -->
<svg version="1.1" id="レイヤー_1" xmlns="http://www.w3.org/2000/svg" xmlns:xlink="http://www.w3.org/1999/xlink" x="0px"
	 y="0px" viewBox="0 0 138 562" enable-background="new 0 0 138 562" xml:space="preserve">
<path d="M137.7,7.3l-1.5,1.3c-0.2,0.2-0.4,0.2-0.7-0.1c-1.4-2.3-3.8-5-6.4-7l1.8-1.4c0.2-0.2,0.4-0.2,0.6-0.1
	c2.2,1.7,4.7,4.2,6.3,6.6C138.1,6.9,138,7.1,137.7,7.3z M133.1,11.2l-1.6,1.3c-0.3,0.2-0.6,0.2-0.7-0.1c-1.6-2.7-3.9-5.4-6.4-7.2
	l2-1.5c0.2-0.2,0.4-0.2,0.6,0c2.2,1.6,4.7,4.3,6.3,6.8C133.3,10.9,133.3,11.1,133.1,11.2z M127.3,13.5c0.4,0.6,0.3,1.1-0.2,1.5
	c-0.5,0.4-0.9,0.8-1.3,1.7c-2.4,5.2-5.5,10.5-8.8,14.8c2.2,1.8,4.5,3.8,6.7,6.2c0.3,0.3,0.2,0.6-0.1,1c-0.4,0.7-1.2,1.5-1.8,1.9
	c-0.4,0.3-0.6,0.3-0.9-0.1c-1.9-2.2-4.1-4.4-6.2-6.2c-5.7,6.6-11.8,11.2-19.3,15.3c-0.6,0.3-1,0.4-1.5-0.1c-0.9-0.8-1.9-1.3-3.1-1.8
	c8.4-4.3,15.3-9.2,20.9-15.7c-2.3-1.9-5.4-3.9-8.7-5.7c0.6-0.8,1.2-1.6,1.9-2.2c0.3-0.3,0.4-0.4,0.9-0.2c2.5,1.3,5.6,3.4,8.3,5.3
	c3.1-4,6.2-9.2,8.1-13.9l-16.4,0.3c-3.8,5.3-6.8,8.6-12.1,13c-0.6,0.4-0.9,0.6-1.4,0.2c-0.7-0.6-1.6-1.1-2.7-1.6
	c7.7-5.9,12.6-12,15.9-18.1c1.3-2.3,1.8-3.7,2.2-5.5c1.3,0.4,2.8,1.1,3.9,1.9c0.7,0.4,0.5,1.1-0.1,1.6c-0.7,0.5-1.2,1.2-1.6,1.9
	c-0.6,1.1-1.1,1.9-2,3.2l12.7-0.2c1.9-0.1,2.5-0.2,2.9-0.6c0.5-0.4,0.9-0.4,1.5-0.1C125.7,11.7,126.7,12.7,127.3,13.5z M117.7,162.1
	c-2.7,3.3-7.2,6.4-12.2,8.2c-0.6,0.2-1,0.2-1.6-0.3c-0.8-0.8-1.6-1.5-2.8-2.1c5.7-1.7,10.3-4.5,12.9-7.7c2.7-3.4,4.4-8,4.4-15.3
	v-9.6c0-5.5-0.2-7.8-0.6-9.8c1.7,0.2,3.5,0.5,4.7,0.9c0.7,0.2,0.7,0.8,0.4,1.4c-0.4,0.8-0.6,2.5-0.6,7.3v9.5
	C122.6,153.4,120.6,158.5,117.7,162.1z M98.7,126.5c1.5,0.2,3.4,0.6,4.6,0.9c0.7,0.2,0.7,0.8,0.5,1.3c-0.4,0.7-0.6,2.4-0.6,5.9v9.5
	c0,2.9,0.1,5,0.2,7.4c0,0.7-0.2,0.9-0.8,0.9h-2.6c-0.6,0-0.8-0.2-0.7-0.8c0.1-2.4,0.1-4.9,0.1-7.7v-9.2
	C99.3,131.1,99.1,128.5,98.7,126.5z M126.5,88.4c0.4,0.2,0.6,0.5,0.4,0.9c-0.4,1-0.9,2-1.3,2.7c-0.3,0.4-0.6,0.6-1.1,0.2
	c-5.2-3.4-11.1-6-16.2-7.5v13c0,3.4,0.1,7.8,0.2,11.4c0.1,0.6-0.1,0.7-0.7,0.7c-0.8,0.1-1.9,0.1-2.8,0c-0.6,0-0.8-0.2-0.8-0.8
	c0.2-3.6,0.2-8,0.2-11.4V72.8c0-4.2-0.2-7.1-0.6-9c1.9,0.2,3.6,0.4,4.6,0.7c0.9,0.2,0.7,0.8,0.4,1.7c-0.3,1-0.4,2.6-0.4,6.2v8.1
	C114.7,82.4,120.9,85,126.5,88.4z M108.6,218.7v-21.1h-5.4c-3.3,0-5.8,0.1-8.4,0.3c-0.5,0.1-0.6-0.2-0.7-0.8
	c-0.1-0.7-0.2-2.2-0.2-3.3c3,0.2,5.4,0.3,9.2,0.3h14.4c3.4,0,6.3-0.1,9.7-0.2c0.5-0.1,0.6,0.1,0.6,0.6v2.7c0,0.6-0.1,0.7-0.6,0.7
	c-3.6-0.2-6.3-0.2-9.6-0.2h-4.8v21.1h9.7c3.6,0,6.6-0.1,10.2-0.2c0.6-0.1,0.8,0.1,0.8,0.7v2.6c0,0.6-0.2,0.7-0.8,0.7
	c-3.1-0.1-6.7-0.2-10.2-0.2H98.8c-2.7,0-6.6,0.2-9,0.3c-0.6,0-0.8-0.1-0.9-0.8c-0.1-0.8-0.3-2.2-0.3-3.3c3.6,0.3,6.7,0.3,10.2,0.3
	H108.6z M94.3,260.7c3.1-0.3,5.2-0.7,7.8-1.1c0.7-2.6,1.3-4.9,2.1-8c0.4-2,0.6-3.4,0.5-5.4c1.7,0.4,2.9,0.8,4.3,1.5
	c0.6,0.3,0.8,1,0.2,1.5c-0.4,0.4-0.7,0.9-0.9,1.8c-0.8,2.7-1.6,5.4-2.4,8.1c1.8-0.2,4.1-0.4,5.4-0.4c4.8,0,7.2,2.5,7.2,9.2
	c0,7.2-1.2,13.9-3.1,17.9c-1.4,3.1-3.6,4.4-6.3,4.4c-2.3,0-4.3-0.4-5.7-1c-0.4-0.2-0.7-0.4-0.7-1c-0.1-1-0.2-2.2-0.7-3.4
	c2.4,1.1,4.5,1.6,6.4,1.6c1.6,0,2.7-0.6,3.7-2.9c1.4-3.2,2.5-8.8,2.5-15.7c0-4.4-0.8-5.9-3.8-5.9c-1.7,0-4.1,0.3-6,0.6
	c-3.2,9.7-6.8,18.4-11.3,26.5c-0.2,0.4-0.6,0.4-0.9,0.3c-0.6-0.3-1.6-1-2.2-1.5c-0.3-0.3-0.3-0.6-0.1-0.9
	c4.7-7.9,7.9-15.6,10.7-23.9c-2.3,0.3-4.6,0.7-7.3,1.2c-1,0.2-2,0.4-2.4,0.7c-0.6,0.4-1.1,0.4-1.4-0.3c-0.4-1-0.9-2.2-1.3-3.8
	C90.5,261,92.7,260.9,94.3,260.7z M100.7,303.2c1.2,0.2,2.1,0.4,3.2,0.7c0.4,0.1,0.7,0.3,0.7,0.7c0,0.2-0.2,0.4-0.4,0.5l-0.2,0.1
	c4.1,4.8,7.3,6.9,12.5,9.5c-0.5,0.6-0.9,1.2-1.3,1.9c-0.3,0.6-0.4,0.9-0.6,0.9s-0.4-0.2-0.8-0.4c-4.3-2.5-7.8-5.2-11.4-9.7
	c-3.6,5.4-8.5,9.9-13.7,13c-0.4,0.2-0.6,0.3-0.8,0.3c-0.3,0-0.4-0.2-0.7-0.7c-0.5-0.8-1-1.4-1.5-1.8c6.3-3.2,10.7-7.4,13.8-12.1
	C100.1,305,100.5,304.2,100.7,303.2z M104.1,317.6h-3.2c-2.9,0-3.7,0.1-3.9,0.1c-0.4,0-0.5-0.1-0.5-0.4v-2c0-0.4,0.1-0.4,0.5-0.4
	c0.3,0,1,0.1,3.9,0.1h3.2c2.9,0,3.7-0.1,3.9-0.1c0.4,0,0.4,0.1,0.4,0.4v2c0,0.4-0.1,0.4-0.4,0.4
	C107.8,317.7,107.1,317.6,104.1,317.6z M91.8,327.3c0-4.1-0.1-5.6-0.1-6s0.1-0.4,0.4-0.4c0.3,0,1.8,0.1,6.2,0.1h7.8
	c4.5,0,6-0.1,6.2-0.1c0.4,0,0.4,0.1,0.4,0.4c0,0.3-0.1,1.2-0.1,4.4v5.2c0,3.1,0.1,4.1,0.1,4.4c0,0.4-0.1,0.4-0.4,0.4
	c-0.2,0-1.7-0.1-6.2-0.1h-12c-0.3,2.2-0.7,4.1-1.2,5.8c-0.9,2.9-2.2,5.8-4.4,9c-0.2,0.4-0.4,0.7-0.6,0.7c-0.2,0-0.4-0.2-0.7-0.7
	c-0.7-0.7-1.3-1.3-1.9-1.6c2.7-3.5,4-6.2,4.9-9.5C91.1,336.4,91.8,332.7,91.8,327.3z M109.7,323.5H94.9v3.6h14.8V323.5z
	 M109.7,333.2v-3.7H94.8c-0.1,1.3-0.2,2.5-0.3,3.7H109.7z M43.4,561c-4.3,0-7.8-3.5-7.8-7.8c0-4.3,3.6-7.8,7.8-7.8
	c4.3,0,7.8,3.5,7.8,7.8C51.3,557.5,47.7,561,43.4,561z M43.4,548.2c-2.7,0-4.9,2.2-4.9,5s2.2,5,4.9,5c2.8,0,4.9-2.2,4.9-5
	S46.2,548.2,43.4,548.2z M50.9,375.6l-2,1.7c-0.3,0.2-0.4,0.3-0.6,0.3c-0.2,0-0.4-0.1-0.6-0.4c-2.9-4.2-6.4-7.9-10.2-10.5
	c-0.3-0.2-0.4-0.3-0.4-0.4c0-0.2,0.1-0.3,0.3-0.6l1.7-1.6c0.2-0.2,0.4-0.3,0.6-0.3s0.3,0.1,0.6,0.3c4.1,2.6,7.4,5.7,10.7,10.1
	c0.2,0.3,0.3,0.5,0.3,0.7C51.3,375.2,51.2,375.3,50.9,375.6z M48.9,146.7c-0.2,0.2-0.4,0.2-0.7-0.1c-1.4-2.3-3.8-5-6.4-7l1.8-1.4
	c0.2-0.2,0.4-0.2,0.6-0.1c2.2,1.7,4.7,4.2,6.3,6.6c0.2,0.3,0.1,0.4-0.2,0.7L48.9,146.7z M46.7,27.5c-3.6-0.1-7.6-0.2-11.3-0.2H23.8
	v10.3c0,2.1,0.8,3,1.9,3.5c1.2,0.6,3,0.8,5.9,0.8c3.3,0,7.1-0.4,10.3-0.7c0.4-0.1,0.5,0.1,0.6,0.6c0.1,0.6,0.1,1.6,0.1,2.6
	c0,0.6-0.2,0.7-0.7,0.8c-3.1,0.3-6.7,0.4-10.7,0.4c-3.5,0-5.7-0.3-7.7-1.1c-2.2-0.8-3.6-2.6-3.6-6.1v-11h-4.4
	c-4.2,0-7.8,0.1-11.1,0.3c-0.7,0.1-0.8-0.2-0.9-0.8c-0.1-0.8-0.2-2.2-0.3-3.2c3.8,0.2,7.8,0.3,12.3,0.3h4.4v-11
	c-4.5,0-7.4,0.1-10.3,0.2c-0.6,0-0.8-0.2-0.8-0.8c-0.1-1.1-0.2-2.2-0.2-3.2c3.3,0.2,7,0.3,11,0.3h10.5c3.8,0,7-0.1,10.3-0.2
	c0.6,0,0.7,0.2,0.7,0.7c0,0.7,0.1,1.6,0.1,2.2S41,13,40.3,13c-3.4-0.1-6.8-0.1-10.2-0.1h-6.3v10.9h11.6c3.9,0,8.1-0.1,11.4-0.2
	c0.5,0,0.6,0.2,0.6,0.7c0.1,0.7,0.1,1.8,0,2.6C47.4,27.5,47.3,27.5,46.7,27.5z M36.7,75.1c-2.7,6-6.3,12.2-9.7,16.6
	c-4.9,6.4-10.6,11.8-16.7,15.8c-0.5,0.3-0.9,0.3-1.4-0.1c-0.8-0.6-2.1-1.2-3.3-1.6c7.3-4.5,13.3-10.1,17.9-16.3
	c3.3-4.4,6.5-9.9,8.9-15.6c0.9-2.3,1.4-4.1,1.8-6.7c1.6,0.6,3.5,1.5,4.7,2.4c0.6,0.4,0.6,1,0.2,1.4C38.5,71.7,37.8,72.7,36.7,75.1z
	 M44.3,129.2c0.6-0.1,0.8,0.1,0.9,0.4c0.2,0.7,0.3,2.1,0.3,2.8c0,0.5-0.2,0.6-0.7,0.7c-3,0.2-5.2,0.5-8.1,1.7
	c-8.1,3.2-14.3,10.1-14.3,17.6c0,9.3,8.1,12,16.2,12.7c0.7,0.1,0.9,0.2,0.9,0.6c0,0.6-0.2,1.9-0.3,2.7c-0.1,0.6-0.3,0.8-0.9,0.8
	c-9.4-0.8-19.5-4.9-19.5-16.2c0-7.9,4.8-14.4,13.6-19l-0.1-0.1c-8.3,1.3-15.6,2.5-22.6,4c-2,0.4-2.7,0.6-3.3,1
	c-0.4,0.2-0.7,0.4-1.1,0.4c-0.3,0-0.6-0.2-0.8-0.5c-0.6-1.1-1.1-2.5-1.6-4c2,0,3.4-0.2,6.9-0.7C18.2,132.8,29.4,131.1,44.3,129.2z
	 M17,435.1c4.5,0,5.9-0.1,6.3-0.1c0.3,0,0.4,0.1,0.4,0.4v2.4c0,0.4-0.1,0.5-0.4,0.5c-0.3,0-1.8-0.1-6.3-0.1H8.1
	c-4.5,0-6,0.1-6.3,0.1c-0.3,0-0.4-0.1-0.4-0.5v-2.4c0-0.3,0.1-0.4,0.4-0.4c0.3,0,1.8,0.1,6.3,0.1H17z M3.2,497.3l1.3,0.3
	c0.7,0.2,0.7,0.2,0.7,0.6c-0.3,4.1-1,7.7-2.3,11.4C2.7,510,2.6,510,2,509.8l-1.3-0.5c-0.7-0.3-0.8-0.4-0.6-0.9
	c1.2-2.9,2-7.1,2.2-10.8C2.3,497.1,2.4,497.1,3.2,497.3z M6.8,485.1c1.4,0.1,2.6,0.2,3.6,0.3c0.4,0.1,0.7,0.2,0.7,0.4
	c0,0.3-0.1,0.6-0.3,1c-0.2,0.7-0.3,2.1-0.3,5.8v32.5c0,6.7,0.1,9.6,0.1,9.9c0,0.3-0.1,0.4-0.4,0.4H7.5c-0.4,0-0.4-0.1-0.4-0.4
	c0-0.3,0.1-3.2,0.1-9.9v-32.5C7.2,488.8,7.1,487.3,6.8,485.1z M12.3,497.1l1-0.4c0.4-0.2,0.6-0.2,0.7,0.2c0.9,2.5,1.7,5.5,2.1,8
	c0.1,0.4,0.1,0.4-0.6,0.7l-1.1,0.5c-0.7,0.3-0.9,0.3-0.9-0.2c-0.4-2.8-1-5.5-1.9-8C11.5,497.4,11.5,497.4,12.3,497.1z M13,531.4
	c1.8-2.1,3.3-5.3,4.2-8.3c0.1-0.4,0.2-0.5,0.9-0.2l1.4,0.6c0.6,0.2,0.7,0.3,0.6,0.7c-1,3.3-2.3,6.2-4.3,8.8
	c-0.3,0.4-0.4,0.4-0.9,0.1l-1.5-0.9C12.9,531.8,12.8,531.7,13,531.4z M31.2,520.4c0.4-0.3,0.5-0.3,0.8-0.1c1.5,1.2,3.3,3.1,4.5,4.8
	c0.2,0.3,0.3,0.4-0.2,0.8l-1.4,1c-0.6,0.4-0.7,0.4-0.9,0.1c-0.9-1.5-2.6-3.5-4.3-5c-0.3-0.3-0.3-0.3,0.3-0.7L31.2,520.4z
	 M26.6,519.3c-5.1,0-6.8,0.1-7.2,0.1c-0.4,0-0.4-0.1-0.4-0.4c0-0.3,0.1-1.3,0.1-4.4v-5.2c0-3.1-0.1-4.1-0.1-4.4
	c0-0.4,0.1-0.4,0.4-0.4c0.3,0,2.1,0.1,7.2,0.1h11.2c5.1,0,6.8-0.1,7.1-0.1c0.3,0,0.4,0.1,0.4,0.4c0,0.3-0.1,1.3-0.1,4.4v5.2
	c0,3.1,0.1,4.2,0.1,4.4c0,0.4-0.1,0.4-0.4,0.4c-0.3,0-2.1-0.1-7.1-0.1H26.6z M42.1,507.1H22.2v3.5h19.9V507.1z M42.1,513.1H22.2v3.7
	h19.9V513.1z M49.9,531.2l-1.5,0.9c-0.7,0.4-0.8,0.4-1,0c-1.2-2.9-2.7-5.6-4.6-7.8c-0.3-0.3-0.2-0.4,0.4-0.8l1.3-0.8
	c0.4-0.3,0.6-0.2,0.8,0.1c1.8,2,3.5,4.8,4.9,7.7C50.5,530.7,50.5,530.8,49.9,531.2z M50.3,498.9v1.9c0,0.4,0,0.4-0.4,0.4
	c-0.3,0-2.2-0.1-7.7-0.1H24.3c-5.5,0-7.3,0.1-7.7,0.1c-0.4,0-0.4-0.1-0.4-0.4v-1.9c0-0.4,0.1-0.4,0.4-0.4c0.3,0,2.2,0.1,7.7,0.1h1
	c-0.5-1.4-1.1-2.5-1.8-3.8c-0.2-0.4-0.1-0.5,0.6-0.7l1.3-0.4c0.5-0.2,0.6-0.2,0.8,0.2c0.8,1.4,1.5,3.1,2.1,4.8h7.6
	c0.4-1,0.8-1.8,1.2-2.9c0.3-0.7,0.5-1.5,0.6-2.4c1.1,0.2,2,0.4,2.9,0.7c0.3,0.1,0.6,0.2,0.6,0.5c0,0.3-0.1,0.4-0.3,0.6
	c-0.3,0.3-0.5,0.6-0.7,1c-0.4,0.8-0.8,1.6-1.2,2.4h3.2c5.6,0,7.4-0.1,7.7-0.1C50.3,498.5,50.3,498.5,50.3,498.9z M30.2,489.9v-0.4
	c0-2.1-0.1-3.4-0.4-4.6c1.2,0,2.4,0.1,3.4,0.2c0.4,0.1,0.7,0.2,0.7,0.4c0,0.3-0.1,0.6-0.3,1c-0.2,0.5-0.3,1.3-0.3,2.9v0.4h6.4
	c5.4,0,7.2-0.1,7.4-0.1c0.4,0,0.4,0.1,0.4,0.4v1.9c0,0.4-0.1,0.4-0.4,0.4c-0.3,0-2.1-0.1-7.4-0.1H25.7c-5.4,0-7.2,0.1-7.4,0.1
	c-0.4,0-0.4-0.1-0.4-0.4v-1.9c0-0.4,0.1-0.4,0.4-0.4c0.3,0,2.1,0.1,7.4,0.1H30.2z M20,445.7c-0.3,0-1.3-0.1-4.7-0.1h-5
	c-3.5,0-4.5,0.1-4.8,0.1c-0.4,0-0.4-0.1-0.4-0.4v-2.2c0-0.4,0.1-0.4,0.4-0.4c0.3,0,1.3,0.1,4.8,0.1h5c3.4,0,4.4-0.1,4.7-0.1
	c0.4,0,0.5,0.1,0.5,0.4v2.2C20.5,445.7,20.5,445.7,20,445.7z M20.5,452.8c0,0.3-0.1,0.4-0.5,0.4c-0.3,0-1.3-0.1-4.7-0.1h-5
	c-3.5,0-4.5,0.1-4.8,0.1c-0.4,0-0.4-0.1-0.4-0.4v-2.2c0-0.4,0.1-0.4,0.4-0.4c0.3,0,1.3,0.1,4.8,0.1h5c3.4,0,4.4-0.1,4.7-0.1
	c0.4,0,0.5,0.1,0.5,0.4V452.8z M21,473.5c0,0.4-0.1,0.4-0.4,0.4h-2.4c-0.4,0-0.4-0.1-0.4-0.4v-2.2H7.9v3.1c0,0.4-0.1,0.4-0.4,0.4H5
	c-0.4,0-0.4,0-0.4-0.4c0-0.3,0.1-1.3,0.1-8.1V463c0-3.4-0.1-4.6-0.1-4.9c0-0.4,0.1-0.4,0.4-0.4c0.3,0,1.4,0.1,5.1,0.1h5.2
	c3.7,0,4.8-0.1,5.2-0.1c0.4,0,0.4,0.1,0.4,0.4c0,0.3-0.1,1.5-0.1,4v3.6C20.9,472.2,21,473.3,21,473.5z M17.7,460.5H7.9v8.1h9.7
	V460.5z M37.3,349.1c-0.7,0.8-1.6,1.6-2.1,2.1c-0.4,0.3-0.7,0.4-1.1-0.1c-7.2-8-14.4-14-20.9-19c-1.5-1.2-2.2-2.2-2.2-3.5
	s0.7-2.3,1.9-3.6c4.5-4.8,10.6-10.8,15.5-15.8c1.1-1.2,1.8-2.1,2.4-3.5c1.3,0.8,2.8,1.9,3.6,2.7c0.2,0.2,0.4,0.5,0.4,0.7
	c0,0.3-0.2,0.6-0.6,0.7c-0.7,0.3-1.2,0.7-2.1,1.5c-5.4,5-12.2,11.3-16.4,15.8c-0.6,0.6-0.8,1-0.8,1.4s0.2,0.7,0.7,1
	c6.8,5.1,14.2,11.1,21.4,18.5C37.7,348.5,37.8,348.6,37.3,349.1z M45.7,285.7c-0.3,0.7-0.9,1.7-1.3,2.5c-0.3,0.4-0.6,0.3-0.9,0.1
	c-2.5-2.2-5.5-4-8.4-5.3c0.1,5.7-2.8,8.7-9.9,8.7c-4.2,0-8.6-2.2-8.6-6.8c0-4.2,4-7.1,9.4-7.1c1.7,0,3.8,0.3,5.6,0.7
	c-0.3-3.5-0.6-7.9-0.7-11c0-1.1-0.1-2.1-0.3-3.6c1.5,0.2,2.6,0.3,3.8,0.7c0.4,0.1,0.6,0.3,0.6,0.7c0,0.2-0.1,0.5-0.3,1
	c-0.2,0.6-0.2,1.5-0.2,2.6c0,3.4,0.3,6.7,0.7,10.3c4.1,1.6,7.2,3.2,10.5,5.6C45.9,285,45.8,285.2,45.7,285.7z M31.5,281.7
	c-1.7-0.6-3.7-1-5.4-1c-4.4,0-6.4,1.7-6.4,3.8c0,2.6,2.1,3.8,5.7,3.8c4.6,0,6.2-2.4,6.2-5.3C31.6,282.3,31.6,282,31.5,281.7z
	 M47.4,261.6c-0.3,0.7-0.8,1.6-1.3,2.2c-0.3,0.4-0.4,0.3-0.8,0.1c-3.2-2.5-7.3-4.5-11.3-5.7c0.6-1,1-1.9,1.4-2.6
	c0.3-0.4,0.4-0.5,0.9-0.3c3.7,1.2,7.7,3,10.9,5.3C47.7,261,47.7,261.2,47.4,261.6z M10.2,427.5H16c3.8,0,4.9-0.1,5.2-0.1
	c0.4,0,0.5,0.1,0.5,0.4v2.2c0,0.4-0.1,0.4-0.5,0.4c-0.3,0-1.4-0.1-5.2-0.1h-5.8c-3.8,0-4.9,0.1-5.2,0.1c-0.4,0-0.4-0.1-0.4-0.4v-2.2
	c0-0.4,0.1-0.4,0.4-0.4C5.3,427.4,6.4,427.5,10.2,427.5z M13.5,213.7c0.4,1.1,0.8,1.7,1.3,2.3c0.3,0.5,0.3,0.8,0.1,1.2
	c-1.9,4.3-3.1,7.4-3.3,8.8c-0.1,1-0.2,1.8-0.1,2.5c0.1,0.4,0,0.6-0.3,0.7c-0.7,0.3-1.7,0.6-2.5,0.7c-0.4,0.1-0.6,0-0.7-0.4
	c-1.8-4.7-2.1-11.2-2.1-16.4c0-6.2,0.9-12.4,2.4-21c0.3-1.8,0.4-4,0.3-5.5c1.4,0.3,3.2,1,3.9,1.5c0.7,0.4,0.7,0.9,0.3,1.5
	c-0.3,0.6-0.6,1.4-0.9,2.8c-1.7,8.1-2.7,15.5-2.7,20.7c0,3.2-0.1,6.1,0.4,9.7C10.8,219.8,12.1,217,13.5,213.7z M22.2,246
	c0.3,0.1,0.5,0.3,0.5,0.6c0,0.3-0.1,0.5-0.4,0.8c-0.3,0.3-0.4,0.7-0.8,1.7c-0.6,2-1.2,4.1-1.8,6c2.5-0.3,4.9-0.7,7.7-1.4
	c0.5-0.1,0.7,0,0.7,0.3c0.1,0.7,0.2,1.7,0.3,2.4c0.1,0.5-0.1,0.6-0.5,0.7c-3,0.6-6,1.1-9.3,1.6c-3.2,8.8-7.2,17.2-11.2,23.6
	c-0.3,0.4-0.6,0.4-0.9,0.2c-0.8-0.5-1.7-1.2-2.2-1.7c-0.3-0.3-0.3-0.5-0.1-1c4.6-7,7.8-13.6,10.4-20.8c-2.4,0.2-4.6,0.4-7,0.4
	c-0.8,0-1.7,0-2.9-0.1c-0.5-0.1-0.6-0.1-0.7-0.7c-0.2-0.7-0.3-1.7-0.3-2.8c1.8,0.2,3.2,0.2,4.4,0.2c2.6,0,4.8-0.2,7.6-0.4
	c0.7-2.1,1.2-4.2,1.7-6.6c0.3-1.6,0.5-2.7,0.4-4.4C19.4,245.2,21.1,245.6,22.2,246z M43.4,150.5c-1.6-2.7-3.9-5.4-6.4-7.2l2.1-1.5
	c0.2-0.1,0.3-0.1,0.6,0.1c2.2,1.6,4.7,4.3,6.3,6.8c0.2,0.2,0.1,0.4-0.1,0.6l-1.6,1.3C43.9,150.8,43.6,150.8,43.4,150.5z M47.6,223.6
	c0.3,0.2,0.3,0.3,0.1,0.7c-0.3,0.8-0.9,1.7-1.5,2.5c-0.2,0.3-0.4,0.3-0.7,0.1c-2.4-2.1-4.9-3.8-7.8-5.2c-0.2,4.9-3,7.6-9.3,7.6
	c-5.2,0-8.7-2.3-8.7-6.4c0-4.1,3.8-6.7,8.6-6.7c1.8,0,4.1,0.2,5.8,0.6c-0.2-4.6-0.4-9.8-0.4-15.6c-3.9,0.2-8,0.3-12.4,0.1
	c-0.3,0-0.6-0.1-0.6-0.5c-0.1-0.8-0.2-2-0.2-3c4.6,0.3,9.1,0.3,13.1,0c0-2.1,0.1-4.2,0.1-6.4c0-1.6-0.1-3.1-0.6-5
	c1.8,0.2,3.1,0.4,4.3,0.8c0.4,0.2,0.6,0.4,0.6,0.7c0,0.3-0.1,0.4-0.2,0.8c-0.3,0.5-0.4,1.6-0.4,2.7c-0.1,2-0.1,3.9-0.1,6.2
	c2.9-0.3,5.9-0.7,8.8-1.3c0.4-0.1,0.5,0,0.6,0.4c0.1,0.6,0.2,1.6,0.2,2.2c0,0.4-0.2,0.6-0.4,0.7c-2.8,0.7-6.2,1.1-9.2,1.3
	c0.1,6.6,0.2,11.9,0.5,16.9C41.4,219.3,44.7,221.2,47.6,223.6z M34.2,220.2c-2.1-0.6-4.1-1-6.1-1c-3.1,0-5.2,1.3-5.2,3.6
	c0,2,2,3.2,5.3,3.2c3.9,0,5.9-1.8,5.9-4.8V220.2z M29.7,469.4c0.6,0.6,2.8,0.9,6.9,0.9c5.6,0,7.6-0.6,8.7-1.7c0.8-1,1.4-2.8,1.6-6.9
	c0.6,0.4,1.3,0.8,2.2,1.1c1.1,0.4,1.1,0.4,1.1,1.5c-0.4,4-1.1,5.7-2.3,7c-1.4,1.5-4.2,2.2-11.6,2.2c-5.4,0-8.2-0.4-9.2-1.3
	c-1.1-0.9-1.3-2-1.3-5V452c0-4-0.1-5.8-0.1-6.1c0-0.4,0.1-0.4,0.4-0.4c0.3,0,2,0.1,5.9,0.1h11.1v-14.2H32.2c-4.4,0-5.8,0.1-6.1,0.1
	c-0.4,0-0.4-0.1-0.4-0.4v-2.5c0-0.4,0.1-0.4,0.4-0.4c0.3,0,1.7,0.1,6.1,0.1h7.7c4.4,0,5.9-0.1,6.2-0.1c0.4,0,0.4,0.1,0.4,0.4
	c0,0.3-0.1,1.7-0.1,5.8v11.1c0,4.1,0.1,5.5,0.1,5.8c0,0.4-0.1,0.4-0.4,0.4h-2.6c-0.4,0-0.4-0.1-0.4-0.4v-2.6H29.1v17.4
	C29.1,467.9,29.2,469,29.7,469.4z M27.6,522.5c0,0.3-0.1,0.4-0.2,0.7c-0.2,0.4-0.3,1-0.3,2.6v3.6c0,1.3,0.2,1.7,1.1,2.1
	c0.6,0.2,1.7,0.3,4.1,0.3c2,0,4,0,5.4-0.7c1-0.6,1.4-1.7,1.5-4.6c0.7,0.6,1.4,0.8,2.1,1c1,0.2,1,0.3,0.9,1.3c-0.4,2.9-1.3,4-2.6,4.8
	c-1.6,1-4.5,1.1-7.3,1.1c-3.3,0-5.4-0.1-6.5-0.6c-1.1-0.5-1.8-1.3-1.8-3.2v-4.9c0-1.5,0-2.9-0.3-4.3c1.1,0.1,2.3,0.2,3.3,0.4
	C27.4,522.1,27.6,522.3,27.6,522.5z M96,438.7c4.1-3.9,9.7-6.2,16.7-6.2c12.4,0,19.8,7.3,19.8,18c0,9.1-5.6,16.5-17.7,19.5
	c-0.7,0.2-1.1,0.1-1.4-0.6c-0.3-0.6-1.1-1.4-2.2-2.1c11-2.2,17.3-8.2,17.3-17.5c0-8.3-6.4-14.2-14.3-14.2h-1.1
	c-1,9.5-3.8,18.8-7.3,24.5c-2.4,4.1-4.9,5.8-8.2,5.8c-4.2,0-8.1-4.6-8.1-12.7C89.6,448,91.9,442.5,96,438.7z M97.6,461.8
	c1.9,0,3.6-1.2,5.2-4.1c2.8-5,5.8-13.7,6.5-21.9c-4.3,0.6-8.2,2.5-10.8,5.2c-3.7,3.7-5.3,8.3-5.3,12.1
	C93.1,459.2,95.6,461.8,97.6,461.8z M94.2,489c1.4,0.3,3.2,1,3.9,1.5c0.7,0.4,0.7,0.9,0.3,1.5c-0.3,0.6-0.6,1.4-0.9,2.8
	c-1.7,8.1-2.7,15.5-2.7,20.7c0,3.2-0.1,6.1,0.4,9.7c1.2-3,2.4-5.8,3.9-9.1c0.4,1.1,0.8,1.7,1.3,2.3c0.3,0.5,0.3,0.8,0.1,1.2
	c-1.9,4.3-3.1,7.4-3.3,8.8c-0.1,1-0.2,1.8-0.1,2.5c0.1,0.4,0,0.6-0.3,0.7c-0.7,0.3-1.7,0.6-2.5,0.7c-0.4,0.1-0.6,0-0.7-0.4
	c-1.8-4.7-2.1-11.2-2.1-16.4c0-6.2,0.9-12.4,2.4-21C94.2,492.7,94.4,490.6,94.2,489z M114,518.5c1.8,0,4.1,0.2,5.8,0.6
	c-0.2-4.6-0.4-9.8-0.4-15.6c-3.9,0.2-8,0.3-12.4,0.1c-0.3,0-0.6-0.1-0.6-0.5c-0.1-0.8-0.2-2-0.2-3c4.6,0.3,9.1,0.3,13.1,0
	c0-2.1,0.1-4.2,0.1-6.4c0-1.6-0.1-3.1-0.6-5c1.8,0.2,3.1,0.4,4.3,0.8c0.4,0.2,0.6,0.4,0.6,0.7c0,0.3-0.1,0.4-0.2,0.8
	c-0.3,0.5-0.4,1.6-0.4,2.7c-0.1,2-0.1,3.9-0.1,6.2c2.9-0.3,5.9-0.7,8.8-1.3c0.4-0.1,0.5,0,0.6,0.4c0.1,0.6,0.2,1.6,0.2,2.2
	c0,0.4-0.2,0.6-0.4,0.7c-2.8,0.7-6.2,1.1-9.2,1.3c0.1,6.6,0.2,11.9,0.5,16.9c3.6,1.5,6.9,3.4,9.8,5.8c0.3,0.2,0.3,0.3,0.1,0.7
	c-0.3,0.8-0.9,1.7-1.5,2.5c-0.2,0.3-0.4,0.3-0.7,0.1c-2.4-2.1-4.9-3.8-7.8-5.2c-0.2,4.9-3,7.6-9.3,7.6c-5.2,0-8.7-2.3-8.7-6.4
	C105.5,521,109.3,518.5,114,518.5z M114,528.4c3.9,0,5.9-1.8,5.9-4.8v-1.1c-2.1-0.6-4.1-1-6.1-1c-3.1,0-5.2,1.3-5.2,3.6
	C108.6,527.2,110.6,528.4,114,528.4z M123.1,547.2l1.7-1.6c0.2-0.2,0.4-0.3,0.6-0.3c0.2,0,0.3,0.1,0.6,0.3
	c4.1,2.6,7.4,5.7,10.7,10.1c0.2,0.3,0.3,0.5,0.3,0.7c0,0.2-0.1,0.4-0.4,0.7l-2,1.7c-0.3,0.2-0.4,0.3-0.6,0.3c-0.2,0-0.4-0.1-0.6-0.4
	c-2.9-4.2-6.4-7.9-10.2-10.5c-0.3-0.2-0.4-0.3-0.4-0.4C122.8,547.6,122.8,547.4,123.1,547.2z M130.7,243.9c2.2,1.7,4.7,4.2,6.3,6.6
	c0.2,0.3,0.1,0.4-0.2,0.7l-1.5,1.3c-0.2,0.2-0.4,0.2-0.7-0.1c-1.4-2.3-3.8-5-6.4-7l1.8-1.4C130.3,243.8,130.5,243.7,130.7,243.9z
	 M126,247.6c2.2,1.6,4.7,4.3,6.3,6.8c0.2,0.2,0.1,0.4-0.1,0.6l-1.6,1.3c-0.3,0.2-0.6,0.2-0.7-0.1c-1.6-2.7-3.9-5.4-6.4-7.2l2.1-1.5
	C125.7,247.4,125.8,247.5,126,247.6z M125.1,256.4c3.9,3.4,7.1,8.2,8.9,13.6c0.1,0.4,0.2,0.7-0.2,1c-0.6,0.5-1.6,1.2-2.3,1.5
	c-0.4,0.3-0.8,0.2-0.9-0.3c-1.9-5.7-4.7-10.5-8.9-14.2c0.8-0.6,1.7-1.2,2.5-1.7C124.6,256.1,124.8,256.1,125.1,256.4z M118.8,308.7
	c1.3,0.1,2.4,0.2,3.6,0.3c0.4,0.1,0.6,0.2,0.6,0.5s-0.2,0.6-0.3,1c-0.2,0.7-0.2,1.7-0.2,5.8v15.2c0,4.9,0.1,6.9,0.1,7.2
	c0,0.4-0.1,0.5-0.4,0.5h-2.6c-0.4,0-0.4-0.1-0.4-0.5c0-0.3,0.1-2.3,0.1-7.2v-15.1C119.2,312.5,119.2,310.7,118.8,308.7z
	 M133.2,347.4c0,2.4-0.4,3.6-1.6,4.5c-1.3,0.8-2.3,1.1-7.5,1.1c-0.9,0-1.1-0.1-1.3-1.2c-0.3-1.1-0.6-1.8-1.1-2.5
	c1.9,0.2,3.1,0.3,5.3,0.3c2.1,0,2.8-0.4,2.8-2.7v-35.3c0-3.4-0.1-5-0.4-6.8c1.4,0.1,2.6,0.2,3.7,0.3c0.4,0.1,0.7,0.2,0.7,0.4
	c0,0.4-0.2,0.7-0.3,1.1c-0.3,0.6-0.3,1.6-0.3,4.8V339C133.2,342,133.2,345.2,133.2,347.4z M117,368.1c0.2-0.2,0.6-0.4,0.8-0.4
	c0.3,0,0.6,0.1,1,0.4c1.1,0.8,1.9,1.7,2.4,2.4c0.3,0.3,0.4,0.7,0.4,1c0,0.4-0.3,0.8-0.8,1.1c-0.7,0.2-1.3,0.6-2.6,2
	c-4.9,5.3-8.7,9.2-14.2,14.9l0.2,0.2c4-2.6,7.9-4,11.9-4c8,0,12.9,5,12.9,12.3c0,8.3-6.6,14.4-18.3,14.4c-6.7,0-9.7-3-9.7-6.6
	c0-2.9,2.6-5.7,6.5-5.7c5,0,8.4,3.2,9.4,8c4.8-1.6,8.1-4.7,8.1-10.2c0-5.7-4.3-9.2-9.6-9.2c-5.5,0-11,2.9-15.3,6.3
	c-1.8,1.4-3.2,2.9-4.9,4.6c-0.4,0.4-0.7,0.5-1.1,0.1c-0.7-0.7-1.5-1.5-2.1-2.2c-0.2-0.3-0.2-0.5,0.2-0.8c4.4-3.9,7.2-6.7,12.6-12.5
	c3.2-3.5,6.6-7.1,10.8-12.2c-4.6,0.7-8.9,1.6-13.9,2.5c-0.7,0.1-1.4,0.3-1.9,0.5c-0.4,0.2-0.8,0.3-1.1,0.3c-0.4,0-0.7-0.2-0.9-0.7
	c-0.5-1-0.9-2.1-1.3-3.9c1.8,0.2,3.4,0.2,4.9,0.1c4.4-0.4,8.9-1.1,13.8-2C115.9,368.5,116.6,368.3,117,368.1z M107.5,402.9
	c-1.8,0-3.4,0.9-3.4,2.6c0,1.8,2,3.4,5.7,3.4c1.2,0,2.3-0.1,3.6-0.3C112.7,405.5,110.7,402.9,107.5,402.9z M114.2,353.1
	c0,0.4-0.1,0.4-0.4,0.4h-2.4c-0.4,0-0.4-0.1-0.4-0.4v-1.7H98.3v2.1c0,0.3-0.1,0.4-0.4,0.4h-2.3c-0.4,0-0.4-0.1-0.4-0.4
	c0-0.3,0.1-1.6,0.1-6.2v-3.4c0-2.5-0.1-3.5-0.1-3.9c0-0.4,0.1-0.4,0.4-0.4c0.3,0,1.6,0.1,5.8,0.1h6.4c4.2,0,5.6-0.1,5.9-0.1
	c0.4,0,0.4,0.1,0.4,0.4c0,0.3-0.1,1.3-0.1,3.3v3.7C114.1,351.4,114.2,352.8,114.2,353.1z M111,342.3H98.3v6.5H111V342.3z"/>
</svg>
